{
  "source": "C:\\Users\\Peter\\Desktop\\stuff\\MIUN\\quantitative_research\\video_compression\\videos\\BVI-HD\\BVI-HD_CDVL_videos\\ORIG\\Boxing_1920x1080_30fps.mp4",
  "output": "C:\\Users\\Peter\\Desktop\\stuff\\MIUN\\quantitative_research\\video_compression\\compressed_videos\\BVI-HD\\vp9\\1.5\\Boxing_1920x1080_30fps_vp9.webm",
  "codec": "vp9",
  "ok": "Input #0, mov,mp4,m4a,3gp,3g2,mj2, from 'C:\\Users\\Peter\\Desktop\\stuff\\MIUN\\quantitative_research\\video_compression\\videos\\BVI-HD\\BVI-HD_CDVL_videos\\ORIG\\Boxing_1920x1080_30fps.mp4':\n  Metadata:\n    major_brand     : isom\n    minor_version   : 512\n    compatible_brands: isomiso2avc1mp41\n    encoder         : Lavf54.28.101\n  Duration: 00:00:05.00, start: 0.000000, bitrate: 238363 kb/s\n  Stream #0:0[0x1](und): Video: h264 (High 4:4:4 Predictive) (avc1 / 0x31637661), yuv420p(progressive), 1920x1080, 238359 kb/s, 30 fps, 30 tbr, 30 tbn (default)\n    Metadata:\n      handler_name    : VideoHandler\n      vendor_id       : [0][0][0][0]\n[out#0/webm @ 00000229a52d1340] Codec AVOption b:a (set bitrate (in bits/s)) has not been used for any stream. The most likely reason is either wrong type (e.g. a video option with no video streams) or that it is a private option of some decoder which was not actually used for any stream.\nStream mapping:\n  Stream #0:0 -> #0:0 (h264 (native) -> vp9 (libvpx-vp9))\nPress [q] to stop, [?] for help\n[libvpx-vp9 @ 00000229a5b7b040] v1.15.2-100-g40561f514\nOutput #0, webm, to 'C:\\Users\\Peter\\Desktop\\stuff\\MIUN\\quantitative_research\\video_compression\\compressed_videos\\BVI-HD\\vp9\\1.5\\Boxing_1920x1080_30fps_vp9.webm':\n  Metadata:\n    major_brand     : isom\n    minor_version   : 512\n    compatible_brands: isomiso2avc1mp41\n    encoder         : Lavf62.3.100\n  Stream #0:0(und): Video: vp9, yuv420p(tv, progressive), 1920x1080, q=2-31, 1500 kb/s, 30 fps, 1k tbn (default)\n    Metadata:\n      encoder         : Lavc62.11.100 libvpx-vp9\n      handler_name    : VideoHandler\n      vendor_id       : [0][0][0][0]\n    Side data:\n      cpb: bitrate max/min/avg: 0/0/0 buffer size: 1500000 vbv_delay: N/A\nframe=    0 fps=0.0 q=0.0 size=       0KiB time=N/A bitrate=N/A speed=N/A elapsed=0:00:00.53    \nframe=    7 fps=6.1 q=57.0 size=       1KiB time=00:00:00.23 bitrate=  21.7kbits/s speed=0.202x elapsed=0:00:01.15    \nframe=   13 fps=7.7 q=52.0 size=       1KiB time=00:00:00.43 bitrate=  11.7kbits/s speed=0.257x elapsed=0:00:01.68    \nframe=   19 fps=8.5 q=50.0 size=       1KiB time=00:00:00.63 bitrate=   8.0kbits/s speed=0.282x elapsed=0:00:02.24    \nframe=   24 fps=8.6 q=52.0 size=       1KiB time=00:00:00.80 bitrate=   6.3kbits/s speed=0.285x elapsed=0:00:02.80    \nframe=   30 fps=9.0 q=54.0 size=       1KiB time=00:00:01.00 bitrate=   5.1kbits/s speed=0.301x elapsed=0:00:03.32    \nframe=   36 fps=9.2 q=51.0 size=       1KiB time=00:00:01.20 bitrate=   4.2kbits/s speed=0.308x elapsed=0:00:03.90    \nframe=   40 fps=9.0 q=49.0 size=       1KiB time=00:00:01.33 bitrate=   3.8kbits/s speed= 0.3x elapsed=0:00:04.44    \nframe=   46 fps=9.3 q=53.0 size=       1KiB time=00:00:01.53 bitrate=   3.3kbits/s speed=0.31x elapsed=0:00:04.95    \nframe=   51 fps=9.3 q=33.0 size=       1KiB time=00:00:01.70 bitrate=   3.0kbits/s speed=0.31x elapsed=0:00:05.48    \nframe=   57 fps=9.5 q=52.0 size=       1KiB time=00:00:01.90 bitrate=   2.7kbits/s speed=0.315x elapsed=0:00:06.03    \nframe=   62 fps=9.4 q=53.0 size=       1KiB time=00:00:02.06 bitrate=   2.5kbits/s speed=0.315x elapsed=0:00:06.56    \nframe=   68 fps=9.6 q=51.0 size=       1KiB time=00:00:02.26 bitrate=   2.2kbits/s speed=0.319x elapsed=0:00:07.10    \nframe=   73 fps=9.6 q=51.0 size=       1KiB time=00:00:02.43 bitrate=   2.1kbits/s speed=0.319x elapsed=0:00:07.63    \nframe=   79 fps=9.7 q=52.0 size=       1KiB time=00:00:02.63 bitrate=   1.9kbits/s speed=0.322x elapsed=0:00:08.17    \nframe=   84 fps=9.6 q=53.0 size=       1KiB time=00:00:02.80 bitrate=   1.8kbits/s speed=0.321x elapsed=0:00:08.72    \nframe=   89 fps=9.6 q=55.0 size=       1KiB time=00:00:02.96 bitrate=   1.7kbits/s speed=0.32x elapsed=0:00:09.26    \nframe=   93 fps=9.5 q=54.0 size=       1KiB time=00:00:03.10 bitrate=   1.6kbits/s speed=0.317x elapsed=0:00:09.79    \nframe=   99 fps=9.6 q=54.0 size=       1KiB time=00:00:03.30 bitrate=   1.5kbits/s speed=0.32x elapsed=0:00:10.32    \nframe=  103 fps=9.5 q=55.0 size=       1KiB time=00:00:03.43 bitrate=   1.5kbits/s speed=0.317x elapsed=0:00:10.84    \nframe=  108 fps=9.5 q=55.0 size=       1KiB time=00:00:03.60 bitrate=   1.4kbits/s speed=0.317x elapsed=0:00:11.36    \nframe=  113 fps=9.5 q=55.0 size=       1KiB time=00:00:03.76 bitrate=   1.3kbits/s speed=0.317x elapsed=0:00:11.88    \nframe=  119 fps=9.6 q=56.0 size=       1KiB time=00:00:03.96 bitrate=   1.3kbits/s speed=0.32x elapsed=0:00:12.41    \nframe=  124 fps=9.6 q=56.0 size=       1KiB time=00:00:04.13 bitrate=   1.2kbits/s speed=0.318x elapsed=0:00:12.98    \nframe=  126 fps=9.3 q=55.0 size=       1KiB time=00:00:04.20 bitrate=   1.2kbits/s speed=0.311x elapsed=0:00:13.51    \nframe=  126 fps=9.0 q=55.0 size=       1KiB time=00:00:04.20 bitrate=   1.2kbits/s speed=0.299x elapsed=0:00:14.02    \nframe=  126 fps=8.6 q=55.0 size=       1KiB time=00:00:04.20 bitrate=   1.2kbits/s speed=0.288x elapsed=0:00:14.58    \nframe=  126 fps=8.3 q=55.0 size=       1KiB time=00:00:04.20 bitrate=   1.2kbits/s speed=0.278x elapsed=0:00:15.12    \n[out#0/webm @ 00000229a52d1340] video:776KiB audio:0KiB subtitle:0KiB other streams:0KiB global headers:0KiB muxing overhead: 0.221629%\nframe=  150 fps=9.6 q=53.0 Lsize=     778KiB time=00:00:05.00 bitrate=1274.1kbits/s speed=0.321x elapsed=0:00:15.59    \n",
  "seconds": 15.848398685455322,
  "probe_out": {}
}